<svg xmlns="http://www.w3.org/2000/svg" xmlns:xlink="http://www.w3.org/1999/xlink" width="500" zoomAndPan="magnify" viewBox="0 0 375 374.999991" height="500" preserveAspectRatio="xMidYMid meet" version="1.0"><defs><clipPath id="ac557356c5"><path d="M 0 73.59375 L 375 73.59375 L 375 301.59375 L 0 301.59375 Z M 0 73.59375 " clip-rule="nonzero"/></clipPath></defs><g clip-path="url(#ac557356c5)"><path fill="#004aad" d="M 370.078125 179.109375 C 332.480469 114.027344 262.503906 73.59375 187.5 73.59375 C 112.457031 73.59375 42.519531 114.027344 4.921875 179.109375 L 0.0078125 187.59375 L 4.921875 196.117188 C 19.5 221.34375 39.640625 243.769531 63.160156 260.929688 L 63.160156 216.351562 C 53.105469 208.328125 51.226562 205.292969 39.601562 187.59375 C 72.136719 138.023438 127.917969 107.613281 187.5 107.613281 C 247.082031 107.613281 302.863281 138.023438 335.398438 187.59375 C 302.824219 237.164062 247.082031 267.535156 187.5 267.535156 C 161.257812 267.535156 139.890625 246.148438 139.890625 219.886719 C 139.890625 214.085938 140.964844 208.441406 142.917969 203.222656 C 149.210938 222.382812 167.203125 236.242188 188.460938 236.242188 C 199.429688 236.242188 209.523438 232.519531 217.578125 226.296875 L 217.730469 226.488281 C 229.816406 217.042969 236.761719 202.875 236.761719 187.554688 C 236.761719 161.253906 216.234375 139.636719 189.917969 138.292969 C 188.382812 138.214844 186.734375 138.214844 185.199219 138.292969 C 185.160156 138.292969 185.121094 138.292969 185.042969 138.292969 C 185.042969 138.292969 185.007812 138.292969 185.007812 138.292969 C 172.308594 138.636719 160.222656 141.824219 149.058594 147.816406 C 122.433594 162.097656 105.898438 189.707031 105.898438 219.921875 C 105.898438 264.964844 142.496094 301.59375 187.5 301.59375 C 262.503906 301.59375 332.445312 261.199219 370.078125 196.15625 L 374.992188 187.632812 Z M 370.078125 179.109375 " fill-opacity="1" fill-rule="nonzero"/></g></svg>